<svg width="231" height="68" fill="none" xmlns="http://www.w3.org/2000/svg"><path d="M24.25 11.335l18.472-.085 13.121 13 .086 18.472-13.001 13.121-18.471.085-13.122-13-.085-18.471 13-13.122z" fill="#061629" stroke="#C6FA32" stroke-width="3"/><path d="M76.57 41v-9.937h-.076c-.423 2.634-.694 4.25-.814 4.85L74.61 41h-3.297l2.927-13.849h4.907v9.833h.075l4.528-9.833h4.983L85.768 41h-3.325l1.109-5.2c.315-1.44.656-2.817 1.023-4.13l.142-.607h-.076L80.075 41H76.57zm17.638 0v-9.937h-.076c-.423 2.634-.694 4.25-.814 4.85L92.248 41H88.95l2.927-13.849h4.907v9.833h.076l4.528-9.833h4.982L103.406 41h-3.325l1.109-5.2a74.66 74.66 0 011.023-4.13l.142-.607h-.076L97.713 41h-3.505zm20.196-2.596h-4.244L108.976 41h-3.846l7.048-13.849h4.765L118.108 41h-3.609l-.095-2.596zm-2.889-2.955h2.775l-.161-4.016-.019-.815c0-.474.013-.887.038-1.24a10.303 10.303 0 01-.578 1.572l-2.055 4.499zm52.8 5.551h-3.703l1.184-5.646h-3.278L157.315 41h-3.704l2.927-13.849h3.704l-1.061 5.134h3.297l1.061-5.134h3.713L164.315 41zm16.568-13.849l-1.885 8.829c-.373 1.774-1.083 3.088-2.131 3.94-1.049.846-2.473 1.27-4.273 1.27-.846 0-1.594-.174-2.245-.521a3.695 3.695 0 01-1.496-1.46c-.348-.625-.521-1.322-.521-2.093 0-.404.038-.811.113-1.222l1.886-8.743h3.703l-1.847 8.649a5.573 5.573 0 00-.132 1.089c0 .802.382 1.203 1.146 1.203.593 0 1.058-.202 1.392-.606.341-.41.6-1.036.777-1.876l1.809-8.459h3.704zM193.245 41h-4.31l-2.738-9.738h-.076c-.183 1.838-.363 3.158-.54 3.96L184.36 41h-3.297l2.927-13.849h4.31l2.709 9.312h.086c.183-1.49.363-2.662.54-3.515l1.24-5.797h3.297L193.245 41zm8.772 0h-3.704l2.245-10.79h-3.003l.654-3.059h9.737l-.672 3.06h-3.012L202.017 41zm13.299 0h-8.222l2.927-13.849h8.222l-.616 3.003h-4.518l-.445 2.179h4.206l-.682 3.002h-4.206l-.54 2.615h4.518l-.644 3.05zm7.465-5.04L221.71 41h-3.704l2.927-13.849h3.666c1.592 0 2.811.316 3.657.947.846.632 1.269 1.582 1.269 2.852 0 .985-.224 1.844-.672 2.576-.449.733-1.115 1.291-1.999 1.677l2.122 4.888.379.909h-4.036l-1.847-5.04h-.691zm.596-2.813h.484c.599 0 1.076-.17 1.43-.511.354-.348.53-.83.53-1.45 0-.391-.11-.688-.331-.89-.215-.209-.531-.313-.947-.313h-.503l-.663 3.164z" fill="#C6FA32"/><path d="M122.626 27.151h4.613c1.371 0 2.41.262 3.117.786.707.518 1.061 1.263 1.061 2.236 0 1.819-.938 3.009-2.814 3.57v.077c.556.183.998.505 1.327.966.328.455.492 1.014.492 1.677 0 1.446-.483 2.563-1.449 3.353-.96.79-2.324 1.184-4.092 1.184h-5.182l2.927-13.849zm2.577 5.314h.682c.556 0 .975-.12 1.26-.36.284-.24.426-.625.426-1.155 0-.645-.401-.967-1.203-.967h-.597l-.568 2.482zm-.559 2.738l-.625 2.908h.776c.544 0 .995-.152 1.355-.455.366-.31.549-.694.549-1.155 0-.436-.104-.761-.312-.976-.209-.215-.575-.322-1.099-.322h-.644zM140.217 41h-8.222l2.927-13.849h8.222l-.616 3.003h-4.518l-.445 2.179h4.205l-.682 3.002h-4.205l-.54 2.615h4.518l-.644 3.05zm8.317 0h-3.704l2.245-10.79h-3.003l.654-3.059h9.738l-.673 3.06h-3.012L148.534 41z" fill="#fff"/><path d="M24.031 45.223v14.204h24.947l-.728-17.3 4.735-12.2 1.638-16.024-5.645-7.466-4.37.728-4.37-3.642-3.46.911-5.463-2.003-2.185 2.003-6.555-2.003-3.824 6.191-5.463 9.47-.91 8.011 5.462 8.195 6.191 10.925z" fill="#C6FA32"/><path fill-rule="evenodd" clip-rule="evenodd" d="M22.412 2l6.625 2.024 2.195-2.012 5.564 2.04 3.53-.929 4.387 3.655 4.423-.737L55 13.797l-1.658 16.216-4.725 12.175.741 17.603h-25.69V45.319l-6.138-10.83L12 26.193l.934-8.22 5.504-9.54L22.412 2zm.325.86l-3.674 5.948-5.422 9.399-.887 7.805 5.396 8.094 6.245 11.02v13.936H48.6l-.716-16.995 4.744-12.226 1.62-15.833-5.426-7.176-4.318.72-4.354-3.629-3.389.892-5.362-1.966-2.175 1.994-6.486-1.982z" fill="#000"/><path d="M34.41 44.677l11.837-6.556 3.096 2.732-.91 2.003-14.022 1.82zm14.204 3.914v1.275l-14.885 1.97 7.42 1.308L49 56.59v1l-7.852-3.536-9.628-1.926-7.67 1.016V52.05l6.19-.865 18.574-2.595z" fill="#000"/><path fill-rule="evenodd" clip-rule="evenodd" d="M48.797 48.29v1.644L34.923 51.77l6.279 1.106L49 56.5V58l-7.909-3.863-9.578-1.916-7.846 1.039V51.8l25.129-3.51zm-16.165 3.784l8.573 1.714 7.796 3.712V57l-7.905-3.772-7.371-1.3-1.093.146zm-.097-.355l-1.009.133-1.755-.35.312-.215 2.452.432zm1.198-.159l14.7-1.945v-.906l-17.225 2.406 2.525.445zm-4.431-.178l-.448.307L30.41 52l-6.377.844v-.726l5.27-.736z" fill="#000"/><path d="M40.601 46.862l7.83-1.092.547 1.092H40.6zM21.663 32.477h-4.916l.728.91 4.188-.91z" fill="#000"/><path fill-rule="evenodd" clip-rule="evenodd" d="M16.369 32.293h5.295l.039.36-4.299.935-1.035-1.295zm.757.364l.422.527 2.421-.527h-2.843zm31.41 12.913l.737 1.473h-8.67l-.026-.362 7.96-1.111zm-5.311 1.109h5.459l-.356-.712-5.103.712z" fill="#000"/><path d="M42.969 12.992c.728-1.82 2.367-5.608 3.096-6.191l2.549-.364-8.194-2.914 3.46 3.824-2.368 8.194.364 4.917 3.096 2.185 2.914-.91 1.639-4.006 3.641-1.093-1.092-5.827-3.46 6.191-1.275 4.37-2.367.729-2.367-2.185c-.122-1.336-.364-4.08-.364-4.37 0-.292.485-1.821.728-2.55z" fill="#000"/><path fill-rule="evenodd" clip-rule="evenodd" d="M40.285 3.645l.196-.294 8.194 2.914-.035.351-2.497.357a1.966 1.966 0 00-.242.292 7.326 7.326 0 00-.367.583c-.264.46-.558 1.04-.853 1.662a66.89 66.89 0 00-1.54 3.544 50 50 0 00-.453 1.428 17.72 17.72 0 00-.191.685 4.66 4.66 0 00-.056.245.83.83 0 00-.018.129c0 .136.06.882.136 1.778.073.858.16 1.839.22 2.506l2.24 2.067 2.173-.67 1.253-4.295 3.715-6.648 1.216 6.482-3.716 1.115-1.638 4.005-3.081.962-3.24-2.286-.373-5.035 2.348-8.128-3.391-3.75zm.755.291L44.082 7.3l-2.387 8.26.356 4.798 2.952 2.084 2.745-.858 1.64-4.007 3.568-1.07-.97-5.173-3.204 5.735-1.296 4.444-2.562.788-2.495-2.303-.007-.07c-.06-.668-.151-1.688-.227-2.578-.075-.883-.137-1.653-.137-1.809 0-.055.01-.126.024-.198.015-.076.036-.166.06-.265.051-.2.12-.444.196-.7a50.33 50.33 0 01.457-1.444l.002-.005.002-.005a67.29 67.29 0 011.552-3.57c.297-.626.595-1.216.866-1.687.136-.236.265-.444.386-.614.119-.166.236-.306.347-.395l.039-.03 1.867-.268-6.818-2.424z" fill="#000"/><path d="M22.21 21.38c.146-.437 1.275-2.974 1.821-4.188l4.37 1.639 4.007-.364 2.185-2.914.364-3.46 1.093-7.83c-.5-.65-3.47-1.698-4.333-1.963a1.19 1.19 0 01-.22-.052c-.05-.025.037-.004.22.052 1.198.216 6.72.82 8.157 1.04l-2.732 1.287-1.82 10.926 1.82 2.914 1.457 1.456h2.185l1.093-3.277 1.274 3.277-4.006 3.278-8.376.91-8.559-2.73z" fill="#000"/><path fill-rule="evenodd" clip-rule="evenodd" d="M31.76 2.123a3.633 3.633 0 00-.234-.064.268.268 0 00-.023-.003c-.006 0-.027-.002-.052.003a.183.183 0 00-.082.322.25.25 0 00.046.03.56.56 0 00.116.037c.04.01.087.02.143.03.43.132 1.376.456 2.276.827.453.187.892.385 1.247.575.177.095.33.186.454.272.09.063.158.12.207.169l-1.082 7.75-.359 3.413-2.106 2.809-3.884.353-4.492-1.684-.07.155a298.56 298.56 0 00-1.061 2.387c-.367.836-.69 1.59-.766 1.819l-.059.175 8.771 2.799 8.469-.92 4.15-3.396-1.505-3.872-1.211 3.632h-1.979l-1.388-1.388-1.774-2.838 1.794-10.764 3.185-1.5-.59-.09c-.65-.1-2.127-.278-3.66-.462l-.513-.061c-1.704-.205-3.367-.408-3.968-.515zm1.732.608a389.912 389.912 0 002.702.33c1.165.14 2.292.275 3.05.375l-2.266 1.067-1.848 11.088 1.87 2.99 1.524 1.524h2.392l.975-2.923 1.044 2.684-3.862 3.16-8.285.9-8.34-2.661c.127-.318.39-.93.69-1.614.338-.771.719-1.625.99-2.229l4.25 1.594 4.128-.375 2.264-3.019.369-3.507 1.102-7.902-.046-.06a1.532 1.532 0 00-.335-.3 4.933 4.933 0 00-.49-.294c-.37-.198-.822-.401-1.28-.59a27.19 27.19 0 00-.597-.238z" fill="#000"/><path d="M19.479 7.894c.291-.146 1.456-.546 2.003-.729L26.58 8.44c.486-.971 1.42-2.95 1.275-3.095-.146-.146-2.489-1.518-3.642-2.186 2.09-.22 6.465-.789 7.049-.893a.123.123 0 01.053-.017c.027 0 .007.006-.053.017-.422.218-2.225 2.527-2.86 3.625l-.547 3.824 3.824 1.092 2.914 2.368v1.456l-4.189-3.46-4.37-.91-4.188-1.457-4.188 1.457 1.82-2.367z" fill="#000"/><path fill-rule="evenodd" clip-rule="evenodd" d="M31.327 2.437a.51.51 0 00.049-.011.184.184 0 00.12-.244.182.182 0 00-.065-.083c-.03-.02-.059-.027-.065-.029a.204.204 0 00-.05-.005.279.279 0 00-.108.024c-.661.113-4.949.67-7.013.888l-.556.058.484.28c.576.334 1.45.844 2.197 1.288.373.222.715.427.972.586a14.166 14.166 0 01.392.252v.005c-.01.057-.034.14-.07.247-.072.214-.188.5-.326.816-.25.576-.567 1.238-.805 1.718l-5.008-1.252-.05.016a61.17 61.17 0 00-1.1.38c-.393.14-.77.28-.927.359l-.037.018-2.219 2.884 4.705-1.636 4.14 1.44 4.337.903 4.451 3.678v-1.93l-3.01-2.446-3.706-1.059.518-3.632c.316-.539.908-1.365 1.479-2.09.29-.37.572-.71.806-.97.118-.13.222-.239.308-.32a1.23 1.23 0 01.157-.133zM27.69 5.4c0-.003 0-.004 0 0zm3.006-2.866a19.86 19.86 0 00-.926 1.1c-.584.744-1.2 1.604-1.524 2.164l-.018.03-.574 4.017 3.941 1.126 2.817 2.289v.983l-3.925-3.242-4.402-.917-4.237-1.474-3.672 1.277 1.422-1.849c.154-.07.482-.193.85-.325.37-.132.77-.268 1.043-.36l5.189 1.298.065-.13c.244-.488.6-1.229.878-1.867.139-.318.26-.615.337-.844a2.21 2.21 0 00.083-.3.584.584 0 00.01-.127.251.251 0 00-.067-.169.632.632 0 00-.075-.06 14.086 14.086 0 00-.426-.275 87.33 87.33 0 00-.978-.59 229 229 0 00-1.721-1.01 267.55 267.55 0 005.91-.745z" fill="#000"/><path d="M47.522 26.284l4.552 4.917 1.275-1.093-5.827-5.463-7.648-2.55-.91 1.094 8.558 3.095z" fill="#000"/><path fill-rule="evenodd" clip-rule="evenodd" d="M39.813 21.886l7.804 2.6 6.004 5.63-1.562 1.339-4.64-5.013-8.762-3.169 1.156-1.387zm.12.424l-.664.797 8.356 3.023 4.464 4.82.987-.846-5.65-5.297-7.492-2.497z" fill="#000"/><path d="M40.783 31.747l-14.385-8.923v-.728L41.33 31.2l8.012 9.287-.546.728-8.013-9.469z" fill="#000"/><path d="M30.405 35.572l-10.38 3.095.729.729 10.379-2.914 7.648-6.373-.728-.546-7.648 6.009z" fill="#000"/><path fill-rule="evenodd" clip-rule="evenodd" d="M38.05 29.334l1.024.768-7.855 6.546L20.7 39.6l-1.019-1.02 10.64-3.172 7.73-6.074zm.005.459l-7.565 5.944-10.12 3.018.437.437 10.24-2.874 7.44-6.201-.432-.324z" fill="#000"/><path d="M44.244 19.183c.971 0 1.785.364 2.367.364l-.182 1.093h-1.457c-.29 0-.364-.425-.728-1.457z" fill="#000"/><path fill-rule="evenodd" clip-rule="evenodd" d="M43.986 19.001h.257c.508 0 .97.095 1.37.187l.15.035c.34.079.616.142.848.142h.214l-.242 1.457h-1.611a.426.426 0 01-.318-.139 1.042 1.042 0 01-.187-.313c-.064-.15-.132-.354-.217-.606a36.16 36.16 0 00-.178-.52L43.986 19zm.516.373l.1.296c.08.238.142.42.2.557a.71.71 0 00.116.205c.022.023.035.026.054.026h1.302l.124-.741a6.344 6.344 0 01-.719-.14 46.088 46.088 0 00-.147-.034 6.496 6.496 0 00-1.03-.169z" fill="#000"/><path d="M34.047 15.178c-1.336-.971-4.08-2.95-4.37-3.096l-2.368 3.096 5.827 1.092.91-1.092z" fill="#000"/><path fill-rule="evenodd" clip-rule="evenodd" d="M29.623 11.852l.135.067c.048.024.133.078.236.146.107.071.244.165.404.276.32.222.733.514 1.178.83.89.636 1.91 1.373 2.578 1.86l.157.114-1.103 1.324-6.223-1.167 2.638-3.45zm.099.47l-2.089 2.731 5.432 1.018.717-.86a374.653 374.653 0 00-2.418-1.743c-.444-.317-.855-.607-1.174-.828a24.08 24.08 0 00-.468-.318z" fill="#000"/><path d="M40.42 18.273h-2.004l.365.729h1.639v-.729z" fill="#000"/><path fill-rule="evenodd" clip-rule="evenodd" d="M38.122 18.09h2.48v1.093h-1.934l-.546-1.092zm.59.365l.181.364h1.345v-.364H38.71z" fill="#000"/></svg>