<svg width="231" height="68" viewBox="0 0 231 68" fill="none" xmlns="http://www.w3.org/2000/svg">
<path d="M24.2506 11.3351L42.7218 11.2498L55.8432 24.2505L55.9286 42.7217L42.9279 55.8431L24.4567 55.9285L11.3352 42.9278L11.2499 24.4566L24.2506 11.3351Z" fill="#061629" stroke="#C6FA32" stroke-width="3"/>
<path d="M76.5702 41V31.0632H76.4944C76.0713 33.6966 75.7997 35.3132 75.6797 35.9132L74.6093 41H71.3128L74.2399 27.151H79.1467V36.9836H79.2225L83.7504 27.151H88.7331L85.7681 41H82.4432L83.5515 35.7995C83.8673 34.3597 84.2083 32.983 84.5746 31.6694L84.7167 31.0632H84.6409L80.075 41H76.5702ZM94.2083 41V31.0632H94.1325C93.7094 33.6966 93.4378 35.3132 93.3178 35.9132L92.2474 41H88.9509L91.878 27.151H96.7848V36.9836H96.8606L101.389 27.151H106.371L103.406 41H100.081L101.19 35.7995C101.505 34.3597 101.846 32.983 102.213 31.6694L102.355 31.0632H102.279L97.7131 41H94.2083ZM114.404 38.4045H110.16L108.976 41H105.13L112.178 27.151H116.943L118.108 41H114.499L114.404 38.4045ZM111.515 35.449H114.29L114.129 31.4326L114.11 30.618C114.11 30.1443 114.123 29.7307 114.148 29.3771C113.997 29.9201 113.804 30.4443 113.57 30.9495L111.515 35.449ZM164.315 41H160.612L161.796 35.3543H158.518L157.315 41H153.611L156.538 27.151H160.242L159.181 32.2852H162.478L163.539 27.151H167.252L164.315 41ZM180.883 27.151L178.998 35.9795C178.625 37.754 177.915 39.0676 176.867 39.9201C175.818 40.7663 174.394 41.1895 172.594 41.1895C171.748 41.1895 171 41.0158 170.349 40.6685C169.705 40.3211 169.206 39.8349 168.853 39.2097C168.505 38.5845 168.332 37.8867 168.332 37.1162C168.332 36.712 168.37 36.3047 168.445 35.8942L170.331 27.151H174.034L172.187 35.7995C172.099 36.2289 172.055 36.5921 172.055 36.8889C172.055 37.6909 172.437 38.0919 173.201 38.0919C173.794 38.0919 174.259 37.8898 174.593 37.4856C174.934 37.0752 175.193 36.45 175.37 35.6101L177.179 27.151H180.883ZM193.245 41H188.935L186.197 31.2621H186.121C185.938 33.0998 185.758 34.4197 185.581 35.2217L184.36 41H181.063L183.99 27.151H188.3L191.009 36.4626H191.095C191.278 34.9722 191.458 33.8008 191.635 32.9482L192.875 27.151H196.172L193.245 41ZM202.017 41H198.313L200.558 30.2106H197.555L198.209 27.151H207.946L207.274 30.2106H204.262L202.017 41ZM215.316 41H207.094L210.021 27.151H218.243L217.627 30.1538H213.109L212.664 32.3325H216.87L216.188 35.3354H211.982L211.442 37.9498H215.96L215.316 41ZM222.781 35.9605L221.71 41H218.006L220.933 27.151H224.599C226.191 27.151 227.41 27.4667 228.256 28.0982C229.102 28.7298 229.525 29.6802 229.525 30.9495C229.525 31.9347 229.301 32.7935 228.853 33.5261C228.404 34.2586 227.738 34.8175 226.854 35.2027L228.976 40.0906L229.355 41H225.319L223.472 35.9605H222.781ZM223.377 33.1472H223.861C224.46 33.1472 224.937 32.9767 225.291 32.6356C225.645 32.2883 225.821 31.8052 225.821 31.1863C225.821 30.7948 225.711 30.498 225.49 30.2959C225.275 30.0875 224.959 29.9833 224.543 29.9833H224.04L223.377 33.1472Z" fill="#C6FA32"/>
<path d="M122.626 27.151H127.239C128.61 27.151 129.649 27.4131 130.356 27.9372C131.063 28.455 131.417 29.2002 131.417 30.1728C131.417 31.9915 130.479 33.1819 128.603 33.7439V33.8197C129.159 34.0029 129.601 34.3249 129.93 34.7859C130.258 35.2406 130.422 35.7995 130.422 36.4626C130.422 37.9088 129.939 39.0265 128.973 39.8159C128.013 40.6053 126.649 41 124.881 41H119.699L122.626 27.151ZM125.203 32.4651H125.885C126.441 32.4651 126.86 32.3451 127.145 32.1052C127.429 31.8652 127.571 31.48 127.571 30.9495C127.571 30.3054 127.17 29.9833 126.368 29.9833H125.771L125.203 32.4651ZM124.644 35.2027L124.019 38.1108H124.795C125.339 38.1108 125.79 37.9593 126.15 37.6562C126.516 37.3467 126.699 36.9615 126.699 36.5005C126.699 36.0647 126.595 35.7395 126.387 35.5248C126.178 35.3101 125.812 35.2027 125.288 35.2027H124.644ZM140.217 41H131.995L134.922 27.151H143.144L142.528 30.1538H138.01L137.565 32.3325H141.77L141.088 35.3354H136.883L136.343 37.9498H140.861L140.217 41ZM148.534 41H144.83L147.075 30.2106H144.072L144.726 27.151H154.464L153.791 30.2106H150.779L148.534 41Z" fill="white"/>
<path d="M24.0313 45.2234V59.4269H48.9785L48.2501 42.1278L52.9846 29.9274L54.6234 13.9029L48.9785 6.43702L44.6082 7.1654L40.2379 3.52348L36.778 4.43396L31.3152 2.43091L29.13 4.43396L22.5746 2.43091L18.7506 8.62217L13.2877 18.0911L12.3772 26.1034L17.8401 34.2977L24.0313 45.2234Z" fill="#C6FA32"/>
<path fill-rule="evenodd" clip-rule="evenodd" d="M22.4123 2L29.0373 4.02432L31.2324 2.01215L36.7959 4.05212L40.3267 3.12297L44.713 6.77818L49.136 6.04102L55.0002 13.797L53.3418 30.0128L48.6171 42.188L49.3582 59.7906H23.6671V45.3189L17.5297 34.4882L12.0002 26.194L12.9343 17.9742L18.4378 8.43491L22.4123 2ZM22.7367 2.86077L19.0632 8.80837L13.6409 18.207L12.754 26.0116L18.1504 34.1061L24.3955 45.1269V59.0622H48.5986L47.8829 42.0665L52.6272 29.8409L54.2465 14.0078L48.8208 6.83197L44.5032 7.55157L40.1489 3.92295L36.76 4.81476L31.3978 2.84861L29.2226 4.84256L22.7367 2.86077Z" fill="black"/>
<path d="M34.4109 44.6769L46.2471 38.1215L49.3427 40.8529L48.4323 42.856L34.4109 44.6769Z" fill="black"/>
<path d="M48.6144 48.5911V49.8657L33.7288 51.8359L41.1485 53.1435L49.0002 56.5901V57.5901L41.1485 54.0539L31.5199 52.1282L23.8494 53.1435V52.0509L30.0406 51.1859L48.6144 48.5911Z" fill="black"/>
<path fill-rule="evenodd" clip-rule="evenodd" d="M48.7967 48.2904V49.934L34.9234 51.7701L41.2015 52.8765L49.0005 56.5004V58.0004L41.0923 54.137L31.5141 52.2214L23.6675 53.2599V51.8011L48.7967 48.2904ZM32.6316 52.0735L41.2051 53.7882L49.0005 57.5004V57.0004L41.0958 53.2277L33.725 51.9287L32.6316 52.0735ZM32.5345 51.7189L31.5262 51.8524L29.7707 51.5013L30.0826 51.2868L32.5345 51.7189ZM33.7329 51.5603L48.4325 49.6148V48.709L31.2081 51.1154L33.7329 51.5603ZM29.3018 51.3817L28.8542 51.6894L30.4087 52.0003L24.0317 52.8443V52.118L29.3018 51.3817Z" fill="black"/>
<path d="M40.6014 46.8623L48.4315 45.7697L48.9778 46.8623H40.6014Z" fill="black"/>
<path d="M21.6634 32.4767H16.7468L17.4752 33.3872L21.6634 32.4767Z" fill="black"/>
<path fill-rule="evenodd" clip-rule="evenodd" d="M16.3687 32.2932H21.6641L21.7028 32.6532L17.4043 33.5877L16.3687 32.2932ZM17.1264 32.6574L17.5476 33.1839L19.9693 32.6574H17.1264ZM48.5366 45.5699L49.2731 47.043H40.6021L40.5769 46.6805L48.5366 45.5699ZM43.2248 46.6788H48.6838L48.3278 45.9667L43.2248 46.6788Z" fill="black"/>
<path d="M42.969 12.9922C43.6974 11.1712 45.3363 7.38362 46.0646 6.80092L48.614 6.43673L40.4197 3.52319L43.8795 7.34721L41.5123 15.5415L41.8764 20.4581L44.9721 22.6433L47.8856 21.7328L49.5245 17.7267L53.1664 16.6341L52.0738 10.807L48.614 16.9983L47.3393 21.3686L44.9721 22.097L42.6048 19.9118C42.4834 18.5764 42.2406 15.8329 42.2406 15.5415C42.2406 15.2502 42.7262 13.7206 42.969 12.9922Z" fill="black"/>
<path fill-rule="evenodd" clip-rule="evenodd" d="M40.2847 3.64482L40.4807 3.35107L48.675 6.26461L48.6398 6.61645L46.1432 6.9731C46.0775 7.03411 45.9961 7.13063 45.9008 7.26461C45.7895 7.42098 45.6661 7.61837 45.534 7.84823C45.2699 8.30781 44.9764 8.88798 44.6814 9.50971C44.0927 10.7504 43.5035 12.1461 43.1401 13.0543C43.0191 13.4174 42.8386 13.9771 42.6883 14.4821C42.6128 14.736 42.5453 14.9745 42.4969 15.1666C42.4727 15.2628 42.4536 15.3457 42.4408 15.4122C42.4273 15.4821 42.4228 15.5232 42.4228 15.541C42.4228 15.6765 42.4822 16.4233 42.5587 17.3191C42.6319 18.1775 42.7193 19.1577 42.7799 19.825L45.0186 21.8916L47.192 21.2229L48.445 16.9269L52.1601 10.2787L53.3756 16.7609L49.6601 17.8756L48.0217 21.8805L44.9406 22.8433L41.7012 20.5567L41.3283 15.5218L43.6764 7.39359L40.2847 3.64482ZM41.0395 3.93629L44.0826 7.29972L41.6963 15.5601L42.0517 20.3584L45.0036 22.4421L47.7495 21.584L49.3889 17.5767L52.9573 16.5062L51.9875 11.3342L48.783 17.0685L47.4867 21.5132L44.9255 22.3013L42.4298 19.9975L42.4235 19.9278C42.3628 19.2599 42.2717 18.2398 42.1958 17.3501C42.1205 16.4675 42.0586 15.6968 42.0586 15.541C42.0586 15.4859 42.0692 15.4154 42.0832 15.3431C42.0979 15.2673 42.1187 15.1773 42.1437 15.0777C42.194 14.8783 42.2631 14.6342 42.3393 14.3782C42.4917 13.8659 42.6745 13.2995 42.7963 12.934L42.798 12.929L42.8 12.924C43.1651 12.0111 43.7585 10.6053 44.3523 9.3536C44.6492 8.72798 44.9474 8.13818 45.2182 7.66679C45.3536 7.43117 45.4835 7.22283 45.6041 7.05342C45.7227 6.8867 45.8397 6.74713 45.9509 6.65818L45.9897 6.62713L47.8572 6.36035L41.0395 3.93629Z" fill="black"/>
<path d="M22.2104 21.3802C22.3561 20.9432 23.4851 18.406 24.0314 17.192L28.4017 18.8309L32.4078 18.4667L34.593 15.5532L34.9572 12.0934L36.0497 4.26323C35.5491 3.61242 32.5793 2.5654 31.7174 2.30017C31.5995 2.27888 31.5234 2.26134 31.4973 2.24828C31.4463 2.22276 31.5343 2.24382 31.7174 2.30017C32.9153 2.51644 38.437 3.11977 39.8737 3.34079L37.1423 4.62739L35.3213 15.5532L37.1423 18.4667L38.5991 19.9234H40.7842L41.8768 16.6457L43.1515 19.9234L39.1454 23.2012L30.769 24.1116L22.2104 21.3802Z" fill="black"/>
<path fill-rule="evenodd" clip-rule="evenodd" d="M31.7602 2.12283C31.6735 2.09625 31.6045 2.07651 31.5614 2.06629C31.55 2.0636 31.5377 2.06091 31.526 2.05896C31.5202 2.058 31.5122 2.0568 31.503 2.05608C31.4973 2.05563 31.4761 2.05395 31.4508 2.05866C31.4394 2.06081 31.4075 2.06756 31.3748 2.09174C31.3331 2.12261 31.2972 2.17821 31.301 2.24856C31.304 2.30291 31.3299 2.33892 31.3391 2.35088C31.3508 2.36604 31.3624 2.37616 31.3684 2.3811C31.3878 2.39715 31.4087 2.40756 31.4151 2.4108L31.4158 2.41112C31.4506 2.42853 31.4963 2.44018 31.5312 2.44839C31.5701 2.4575 31.6183 2.46718 31.674 2.47735C32.1049 2.61046 33.0495 2.93442 33.9495 3.30542C34.4033 3.49245 34.8421 3.69001 35.1968 3.87976C35.3742 3.97466 35.5279 4.06621 35.6507 4.15211C35.7408 4.21504 35.8093 4.27155 35.8577 4.32053L34.7763 12.0712L34.417 15.4841L32.3106 18.2926L28.4265 18.6457L23.9353 16.9615L23.8652 17.1173C23.5919 17.7246 23.1729 18.6629 22.8038 19.5043C22.4373 20.34 22.1138 21.0939 22.0376 21.3226L21.9792 21.4976L30.7502 24.2968L39.2187 23.3763L43.369 19.9806L41.8635 16.1094L40.6528 19.7413H38.6744L37.2856 18.3526L35.5122 15.5151L37.3061 4.75142L40.4906 3.25143L39.9013 3.16078C39.2513 3.06078 37.7736 2.88344 36.2401 2.6994C36.0696 2.67894 35.8984 2.6584 35.7276 2.63787C34.0242 2.43313 32.3615 2.23025 31.7602 2.12283ZM33.4921 2.73144C34.1547 2.81505 34.9176 2.90732 35.6842 2.99945C35.8542 3.0199 36.0245 3.04034 36.194 3.06068C37.3589 3.20048 38.4861 3.33576 39.2437 3.43617L36.9783 4.50328L35.1303 15.5912L36.9988 18.5808L38.5235 20.1055H40.9153L41.8899 17.182L42.9337 19.8662L39.0718 23.0259L30.7875 23.9264L22.4479 21.2649C22.5739 20.9466 22.8369 20.3355 23.1373 19.6506C23.4755 18.8795 23.856 18.0265 24.1273 17.4225L28.3766 19.016L32.5048 18.6407L34.7687 15.6222L35.1378 12.1154L36.2405 4.21271L36.1939 4.15217C36.1147 4.04914 35.9959 3.94907 35.8594 3.85362C35.7207 3.75666 35.5535 3.65757 35.3686 3.55864C34.9987 3.36075 34.5474 3.15794 34.0883 2.96871C33.8898 2.88685 33.6891 2.80727 33.4921 2.73144Z" fill="black"/>
<path d="M19.4787 7.89387C19.77 7.74819 20.9354 7.34758 21.4817 7.16549L26.5804 8.44016C27.066 7.46898 28.0008 5.49021 27.8551 5.34453C27.7094 5.19885 25.3664 3.82706 24.2132 3.15938C26.3038 2.93932 30.6781 2.37021 31.262 2.26556C31.2832 2.2546 31.301 2.2489 31.3149 2.2489C31.3422 2.2489 31.3223 2.25475 31.262 2.26556C30.8395 2.48392 29.0371 4.79271 28.4014 5.89082L27.8551 9.71483L31.6791 10.8074L34.5926 13.1746V14.6314L30.4044 11.1716L26.0341 10.2611L21.8459 8.80435L17.6577 10.2611L19.4787 7.89387Z" fill="black"/>
<path fill-rule="evenodd" clip-rule="evenodd" d="M31.3273 2.43736C31.345 2.43384 31.3624 2.42995 31.3759 2.42576L31.3763 2.42562C31.3805 2.42437 31.3998 2.41846 31.4202 2.40627L31.4207 2.40599C31.4265 2.40265 31.471 2.37698 31.495 2.32101C31.5115 2.2824 31.517 2.23183 31.4967 2.18119C31.4788 2.13643 31.4484 2.11095 31.4314 2.09914C31.4012 2.07815 31.3721 2.0718 31.3657 2.07039L31.3652 2.07029C31.3544 2.06792 31.3454 2.06694 31.3405 2.06648C31.3304 2.06554 31.3213 2.06543 31.3157 2.06543C31.2738 2.06543 31.2364 2.07681 31.2077 2.08896C30.5469 2.20223 26.2594 2.75959 24.1949 2.97691L23.6388 3.03544L24.1227 3.31559C24.699 3.64923 25.5724 4.15873 26.3197 4.60287C26.6935 4.825 27.035 5.03037 27.2918 5.18907C27.4203 5.26849 27.5266 5.33561 27.6048 5.38699C27.6369 5.40808 27.6635 5.42602 27.6845 5.44074C27.6842 5.44242 27.6839 5.44416 27.6836 5.44596C27.6734 5.50261 27.6503 5.58563 27.6139 5.69344C27.5417 5.90718 27.4258 6.1929 27.2883 6.50871C27.0375 7.0846 26.7207 7.74736 26.4833 8.22663L21.4752 6.97459L21.4249 6.99136C21.1509 7.08269 20.7218 7.22878 20.3242 7.37043C19.9322 7.51012 19.5558 7.6507 19.398 7.72962L19.3606 7.74832L17.1423 10.6321L21.8467 8.99577L25.9862 10.4356L30.3239 11.3393L34.7755 15.0167V13.0866L31.7657 10.6412L28.0586 9.58199L28.5774 5.9504C28.8935 5.41146 29.4852 4.58523 30.0556 3.85942C30.3455 3.49048 30.6275 3.15052 30.8622 2.89027C30.9796 2.76001 31.0837 2.65145 31.1699 2.5698C31.2432 2.50035 31.2953 2.45842 31.3273 2.43736ZM27.689 5.39956C27.689 5.39986 27.689 5.40024 27.689 5.40072C27.6885 5.39716 27.6888 5.39642 27.689 5.39956ZM30.695 2.53363C30.6615 2.56956 30.627 2.60722 30.5917 2.64639C30.3497 2.91477 30.0622 3.26157 29.7692 3.63439C29.1846 4.37837 28.5689 5.23801 28.2445 5.7982L28.2269 5.82875L27.6531 9.84491L31.594 10.9709L34.4113 13.2599V14.2434L30.4864 11.0011L26.0836 10.0839L21.8467 8.61018L18.1746 9.88742L19.5972 8.03801C19.7513 7.96722 20.0786 7.84459 20.4465 7.71349C20.8176 7.58126 21.2171 7.44491 21.4898 7.35365L26.6787 8.65087L26.744 8.52022C26.9876 8.033 27.3443 7.2924 27.6222 6.6541C27.7609 6.33561 27.8817 6.03863 27.9589 5.81002C27.9972 5.69666 28.0271 5.5936 28.042 5.51036C28.0494 5.46937 28.0547 5.42508 28.0528 5.38296C28.0512 5.3493 28.0439 5.27367 27.9846 5.21439C27.9636 5.19341 27.9345 5.17169 27.9096 5.15387C27.8814 5.13367 27.8459 5.10966 27.8048 5.08265C27.7225 5.02852 27.6129 4.95935 27.4832 4.87925C27.2237 4.7189 26.8801 4.51228 26.5058 4.2898C25.9433 3.95551 25.3099 3.58448 24.7849 3.27894C26.5991 3.07561 29.4196 2.71337 30.695 2.53363Z" fill="black"/>
<path d="M47.5219 26.2842L52.0743 31.2007L53.3489 30.1082L47.5219 24.6453L39.8739 22.0959L38.9634 23.1885L47.5219 26.2842Z" fill="black"/>
<path fill-rule="evenodd" clip-rule="evenodd" d="M39.8133 21.8855L47.6171 24.4868L53.6214 30.1158L52.0595 31.4546L47.4181 26.4419L38.657 23.273L39.8133 21.8855ZM39.9339 22.3096L39.2692 23.1072L47.6252 26.1296L52.0886 30.95L53.076 30.1037L47.4262 24.807L39.9339 22.3096Z" fill="black"/>
<path d="M40.7835 31.747L26.3979 22.8243V22.0959L41.3298 31.2007L49.342 40.4876L48.7957 41.216L40.7835 31.747Z" fill="black"/>
<path d="M30.4046 35.5718L20.0251 38.6674L20.7535 39.3958L31.133 36.4823L38.781 30.1089L38.0526 29.5626L30.4046 35.5718Z" fill="black"/>
<path fill-rule="evenodd" clip-rule="evenodd" d="M38.0498 29.3336L39.0742 30.1019L31.2194 36.6476L20.6999 39.6005L19.6802 38.5808L30.3191 35.4077L38.0498 29.3336ZM38.055 29.7927L30.4896 35.7369L20.3696 38.7552L20.8067 39.1922L31.0461 36.318L38.4873 30.117L38.055 29.7927Z" fill="black"/>
<path d="M44.2441 19.1832C45.2153 19.1832 46.0287 19.5474 46.6114 19.5474L46.4293 20.64H44.9725C44.6812 20.64 44.6083 20.2151 44.2441 19.1832Z" fill="black"/>
<path fill-rule="evenodd" clip-rule="evenodd" d="M43.9858 19.0012H44.2432C44.7505 19.0012 45.2135 19.0964 45.6132 19.1879C45.6646 19.1997 45.7146 19.2113 45.7633 19.2226C46.1036 19.3016 46.3787 19.3654 46.6105 19.3654H46.8254L46.5826 20.8222H44.9716C44.8451 20.8222 44.7395 20.7723 44.6545 20.6834C44.5775 20.6029 44.5193 20.4924 44.4672 20.37C44.4034 20.2202 44.3348 20.0165 44.2496 19.7637C44.1974 19.6085 44.1389 19.4349 44.0715 19.2439L43.9858 19.0012ZM44.5023 19.3742C44.5391 19.4815 44.5722 19.5799 44.6025 19.67C44.6826 19.9083 44.7435 20.0892 44.8023 20.2273C44.8503 20.3401 44.8877 20.4004 44.9177 20.4317C44.9397 20.4547 44.9525 20.458 44.9716 20.458H46.2741L46.3976 19.717C46.1739 19.6924 45.9296 19.6355 45.6791 19.577C45.6302 19.5656 45.5811 19.5542 45.5319 19.5429C45.2111 19.4694 44.868 19.3984 44.5023 19.3742Z" fill="black"/>
<path d="M34.0466 15.1778C32.7113 14.2066 29.9677 12.2278 29.6763 12.0822L27.3091 15.1778L33.1361 16.2704L34.0466 15.1778Z" fill="black"/>
<path fill-rule="evenodd" clip-rule="evenodd" d="M29.6231 11.8517L29.7577 11.919C29.806 11.9432 29.8905 11.9968 29.9935 12.0651C30.1006 12.1361 30.238 12.2299 30.398 12.3408C30.718 12.5627 31.1308 12.8546 31.5757 13.1719C32.4655 13.8066 33.4857 14.5444 34.1537 15.0302L34.311 15.1446L33.2076 16.4688L26.9846 15.3019L29.6231 11.8517ZM29.7216 12.3223L27.6334 15.0531L33.0646 16.0714L33.7821 15.2104C33.1185 14.7284 32.1855 14.0543 31.3642 13.4684C30.9198 13.1514 30.5086 12.8606 30.1905 12.6401C30.0314 12.5298 29.8963 12.4376 29.7923 12.3687C29.7663 12.3514 29.7427 12.336 29.7216 12.3223Z" fill="black"/>
<path d="M40.4196 18.2731H38.4165L38.7807 19.0015H40.4196V18.2731Z" fill="black"/>
<path fill-rule="evenodd" clip-rule="evenodd" d="M38.1221 18.0909H40.6019V19.1835H38.6684L38.1221 18.0909ZM38.7113 18.4551L38.8934 18.8193H40.2377V18.4551H38.7113Z" fill="black"/>
</svg>
